<svg xmlns="http://www.w3.org/2000/svg" fill="currentColor" viewBox="0 0 435.2 435.2"><path class="a" d="M841.46,813c-57.21,0-115.18-14.48-172.31-43l-1.49-.74-.75-1.49c-28.56-57.13-43-115.11-43-172.32s14.48-115.18,43-172.31l.75-1.49,1.49-.75c57.13-28.56,115.1-43.05,172.31-43.05s115.19,14.49,172.32,43.05l1.49.75.74,1.49c28.57,57.13,43,115.1,43,172.31s-14.48,115.19-43,172.32l-.74,1.49-1.49.74C956.65,798.53,898.67,813,841.46,813ZM675.11,761.76c110.4,54.7,222.31,54.7,332.7,0,54.7-110.39,54.7-222.3,0-332.7-110.39-54.7-222.3-54.7-332.7,0C620.42,539.46,620.42,651.37,675.11,761.76Z" transform="translate(-623.87 -377.81)"/><path class="a" d="M896.46,486.15,853.93,631.51s108.32-31.54,182.8-41.34q-1.24-75.4-38.93-150.8-155.91-78-311.82,0-25.28,50.56-34.16,101.14C778.33,496.34,896.46,486.15,896.46,486.15Z" transform="translate(-623.87 -377.81)"/><path class="a" d="M724.37,706.44l36.29-127.61s-56.14,19-111.57,52.38q6.92,60,36.89,120,155.91,78,311.82,0,29.19-58.39,36.52-116.79C921,652.85,724.37,706.44,724.37,706.44Z" transform="translate(-623.87 -377.81)"/></svg>